<svg width="19" height="19" viewBox="0 0 19 19" fill="none" xmlns="http://www.w3.org/2000/svg">
<path d="M18.4093 4.14508C18.346 4.0693 18.2668 4.00834 18.1773 3.96651C18.0878 3.92469 17.9903 3.90302 17.8915 3.90304H4.28641L3.77365 1.08369C3.74541 0.928231 3.6635 0.787615 3.5422 0.686358C3.42091 0.585101 3.26793 0.529625 3.10992 0.529602H1.0243C0.845359 0.529602 0.673749 0.600685 0.547221 0.727213C0.420692 0.853742 0.349609 1.02535 0.349609 1.20429C0.349609 1.38323 0.420692 1.55484 0.547221 1.68137C0.673749 1.80789 0.845359 1.87898 1.0243 1.87898H2.54234L4.69797 13.7105C4.76147 14.0614 4.91654 14.3892 5.14748 14.6609C4.82873 14.9587 4.59866 15.3388 4.48279 15.7593C4.36692 16.1798 4.36978 16.6242 4.49103 17.0432C4.61229 17.4621 4.84722 17.8393 5.16977 18.1329C5.49231 18.4265 5.88987 18.6251 6.31837 18.7065C6.74686 18.788 7.18953 18.7492 7.59731 18.5944C8.00509 18.4396 8.36204 18.1749 8.62857 17.8297C8.8951 17.4844 9.0608 17.0721 9.1073 16.6384C9.1538 16.2047 9.07927 15.7666 8.892 15.3727H12.7225C12.5716 15.6887 12.4935 16.0346 12.494 16.3848C12.494 16.8518 12.6325 17.3084 12.892 17.6967C13.1514 18.085 13.5202 18.3877 13.9517 18.5664C14.3832 18.7451 14.858 18.7919 15.3161 18.7008C15.7741 18.6097 16.1949 18.3848 16.5252 18.0545C16.8554 17.7243 17.0803 17.3035 17.1714 16.8454C17.2625 16.3874 17.2158 15.9126 17.037 15.4811C16.8583 15.0496 16.5556 14.6808 16.1673 14.4213C15.779 14.1618 15.3224 14.0234 14.8554 14.0234H6.68914C6.53114 14.0233 6.37816 13.9679 6.25686 13.8666C6.13557 13.7653 6.05366 13.6247 6.02542 13.4693L5.75807 11.9993H15.541C16.0151 11.9992 16.474 11.8328 16.8379 11.529C17.2018 11.2253 17.4475 10.8034 17.5322 10.337L18.5577 4.69833C18.5751 4.60087 18.5708 4.50078 18.5451 4.40517C18.5195 4.30956 18.4731 4.22076 18.4093 4.14508ZM7.77117 16.3848C7.77117 16.5849 7.71182 16.7806 7.60061 16.947C7.48941 17.1134 7.33135 17.2432 7.14643 17.3198C6.9615 17.3964 6.75802 17.4164 6.5617 17.3773C6.36539 17.3383 6.18506 17.2419 6.04353 17.1004C5.90199 16.9588 5.8056 16.7785 5.76656 16.5822C5.72751 16.3859 5.74755 16.1824 5.82415 15.9975C5.90074 15.8125 6.03046 15.6545 6.19689 15.5433C6.36331 15.4321 6.55898 15.3727 6.75914 15.3727C7.02755 15.3727 7.28496 15.4794 7.47475 15.6691C7.66455 15.8589 7.77117 16.1164 7.77117 16.3848ZM15.8674 16.3848C15.8674 16.5849 15.8081 16.7806 15.6969 16.947C15.5857 17.1134 15.4276 17.2432 15.2427 17.3198C15.0578 17.3964 14.8543 17.4164 14.658 17.3773C14.4616 17.3383 14.2813 17.2419 14.1398 17.1004C13.9982 16.9588 13.9019 16.7785 13.8628 16.5822C13.8238 16.3859 13.8438 16.1824 13.9204 15.9975C13.997 15.8125 14.1267 15.6545 14.2931 15.5433C14.4596 15.4321 14.6552 15.3727 14.8554 15.3727C15.1238 15.3727 15.3812 15.4794 15.571 15.6691C15.7608 15.8589 15.8674 16.1164 15.8674 16.3848ZM16.2048 10.0958C16.1764 10.2517 16.0942 10.3927 15.9724 10.494C15.8505 10.5953 15.6969 10.6505 15.5385 10.6499H5.51266L4.53183 5.25241H17.0827L16.2048 10.0958Z" fill="black"/>
</svg>

