<svg width="25" height="24" viewBox="0 0 25 24" fill="none" xmlns="http://www.w3.org/2000/svg">
<mask id="mask0_236_1298" style="mask-type:alpha" maskUnits="userSpaceOnUse" x="0" y="2" width="20" height="21">
<rect x="0.303711" y="2.88086" width="19.6964" height="19.6964" fill="#D9D9D9"/>
</mask>
<g mask="url(#mask0_236_1298)">
<path d="M1.94507 20.9359V6.16358C1.94507 5.71221 2.10592 5.32567 2.42763 5.00396C2.74879 4.6828 3.13506 4.52222 3.58643 4.52222H16.7174C17.1687 4.52222 17.5553 4.6828 17.877 5.00396C18.1982 5.32567 18.3587 5.71221 18.3587 6.16358V16.0118C18.3587 16.4632 18.1982 16.8497 17.877 17.1714C17.5553 17.4926 17.1687 17.6531 16.7174 17.6531H5.2278L1.94507 20.9359ZM3.58643 16.9761L4.55074 16.0118H16.7174V6.16358H3.58643V16.9761Z" fill="black" fill-opacity="0.6"/>
</g>
</svg>
