<svg width="349" height="97" viewBox="0 0 349 97" fill="none" xmlns="http://www.w3.org/2000/svg">
<path fill-rule="evenodd" clip-rule="evenodd" d="M313.295 94.0958C314.517 85.2272 327.837 81.8957 318.466 79.4014C315.04 78.4892 319.186 81.0412 316.663 78.8241C315.538 77.8425 319.716 77.8425 318.605 77.6173C318.246 77.5538 319.277 77.421 319.574 77.421L308.694 76.6877C310.93 76.6877 315.826 76.8841 317.496 76.861L323.571 76.4857C324.308 73.2234 325.837 75.533 318.514 74.3782C315.919 74.0562 313.337 73.4604 310.781 72.5941C310.781 72.5941 317.609 69.7072 313.444 69.0028C312.895 68.9104 312.966 68.7257 312.879 68.5755C320.243 69.303 317.28 69.3319 320.721 69.0144C319.306 67.363 318.718 68.3099 325.3 64.6147L327.414 63.4599C331.004 61.953 325.665 64.1701 329.831 62.6285C339.354 59.1123 334.232 59.0949 332.274 57.7958C329.967 56.26 329.873 56.8374 331.854 56.0117C332.009 55.9482 332.403 55.7692 332.578 55.6999L336.808 54.7761C334.584 54.1583 333.696 54.0891 332.607 53.3904C330.267 51.8835 332.607 51.4793 332.684 51.4446L334.655 50.7287C334.814 50.6652 335.169 50.5035 335.328 50.4342L337.816 47.403C337.88 47.3452 338.139 47.172 338.236 47.1143C338.42 47.0104 339.254 46.6986 339.509 46.612C341.202 46.0346 338.921 46.2482 342.705 45.8902L335.176 44.3544C334.718 44.3118 334.261 44.2231 333.809 44.0888C341.27 44.7932 338.045 45.0011 343.952 44.2043C345.791 41.0114 344.295 42.0218 343.872 40.1626C343.154 37.0505 343.345 39.9894 346.063 37.1545L337.16 35.1798C331.214 34.4408 337.457 35.3242 327.85 35.2318C329.753 34.1983 328.748 34.9027 328.661 33.9673L328.38 33.3899C328.146 33.1782 327.9 33.0117 327.646 32.8934C327.265 32.6855 324.909 32.4604 322.476 30.7224C322.683 30.6763 324.803 30.0354 325.814 29.8044C326.267 29.7005 327.633 29.3945 328.141 29.3079C328.503 29.2501 329.007 29.1693 329.388 29.1173L333.589 28.7824L335.069 28.7016L339.516 28.4707C343.435 28.3494 340.521 28.1011 345.865 28.4707C343.781 25.5838 341.542 28.2108 342.282 26.2131C342.605 25.3124 342.282 25.9417 344.77 25.4798L347.491 25.0814C347.168 25.0179 348.541 24.9602 349.016 24.8736C344.104 23.5052 344.696 24.1403 342.773 22.2869C339.865 19.4924 340.892 21.6518 331.363 21.3573C334.352 19.9658 335.14 20.0005 332.07 18.6898C328.687 17.2406 331.382 17.8815 326.163 19.3885C326.926 15.7394 327.456 15.7336 324.056 14.4172C333.036 14.3826 329.227 12.7774 346.467 13.8398C346.166 13.6897 345.61 13.528 345.368 13.4357L342.589 12.4021C336.892 9.88477 344.528 14.0535 340.576 10.722L337.108 8.7531C320.967 8.23923 336.892 9.33048 326.412 9.0187C325.119 8.97251 323.106 8.52792 320.308 8.44132C322.463 7.81197 325.061 7.57524 321.529 7.82351C335.405 8.60875 334.691 8.83393 340.944 7.56369C337.512 6.25881 343.326 8.33739 338.747 6.56483L332.422 4.75762C338.863 3.53935 338.239 3.98393 347.061 4.37655C346.092 4.22643 344.056 3.90887 342.886 3.5509C339.729 2.58667 342.017 3.51626 340.239 2.32685L331.712 0.993096L314.494 0C313.392 0.623571 313.218 1.38571 313.748 1.73214L49.0022 0.363753C48.8406 0.0230981 48.2945 0.744826 45.1664 0.0231002C42.0739 2.13054 42.9528 1.17786 43.7575 1.75524L40.0704 3.03703L35.7143 2.90423C34.4928 11.7728 21.1727 15.1101 30.544 17.6043C33.9693 18.5166 29.8234 15.9588 32.3439 18.1817C33.4717 19.1691 29.2934 19.2037 30.405 19.4058C30.7637 19.4751 29.7329 19.6021 29.4356 19.6079L37.4852 20.1044L37.4658 20.2314C35.2038 20.1737 32.638 20.1044 31.5166 20.1217L25.4382 20.4913C24.7047 23.7881 23.1762 21.4382 30.4987 22.6045C34.0275 23.1819 35.0874 23.4186 36.9003 23.9729L36.729 25.1276C34.9937 26.0341 32.7284 27.5238 35.5689 28.0145C36.1183 28.1069 36.0439 28.2917 36.1344 28.4418C28.7699 27.7143 31.7299 27.6854 28.2916 28.0088C29.707 29.6601 30.2951 28.7074 23.7094 32.4026L21.5992 33.5574C18.0091 35.0644 23.3442 32.8472 19.1821 34.3888C9.65889 37.9108 14.7808 37.9224 16.7358 39.2215C19.0463 40.7573 19.1401 40.1799 17.1592 41.0056C17.004 41.0691 16.6098 41.2539 16.4353 41.3174L12.2053 42.2412C14.4286 42.859 15.3172 42.9283 16.4062 43.6269C18.7458 45.1339 16.4062 45.5438 16.3287 45.5727L14.3575 46.2944L13.6853 46.5831L11.1971 49.6201C11.1325 49.6779 10.8739 49.8453 10.777 49.903C10.5928 50.007 9.75908 50.3188 9.50056 50.4111C7.8105 50.9885 10.0919 50.7749 6.30786 51.1271L13.834 52.686C14.2934 52.7224 14.751 52.8111 15.2041 52.9516C7.74263 52.2472 10.9676 52.0336 5.06049 52.8304C3.21855 56.0233 4.71795 55.0186 5.14128 56.872C5.85867 59.9841 5.66802 57.0395 2.94711 59.8744L11.8531 61.8491C17.799 62.5881 11.5558 61.7105 21.163 61.8029C19.2596 62.8306 20.2646 62.132 20.3519 63.0616L20.633 63.6389C20.8663 63.8532 21.1124 64.0197 21.3666 64.1355C21.7446 64.3433 24.1004 64.5685 26.5369 66.3122C26.3333 66.3526 24.2135 66.9935 23.202 67.2245C22.7496 67.3284 21.3827 67.6402 20.8754 67.721C20.5102 67.7845 20.0093 67.8596 19.628 67.9116L15.4271 68.2464C14.9682 68.2811 14.4124 68.3042 13.9471 68.3273L9.50056 68.5582C5.58078 68.6795 8.49557 68.9277 3.15069 68.5582C5.235 71.4451 7.47443 68.8123 6.73442 70.81C6.41127 71.7107 6.73441 71.0814 4.24294 71.5433L1.52525 71.9417C1.8484 72.011 0.471796 72.0629 0 72.1495C4.90862 73.5237 4.32049 72.8828 6.23999 74.7362C9.14832 77.5365 8.12395 75.3713 17.6536 75.6658C14.6645 77.0573 13.876 77.0284 16.9459 78.3391C20.3293 79.7825 17.6342 79.1416 22.853 77.6346C22.0872 81.2895 21.5604 81.2895 24.96 82.6117C15.9797 82.6405 19.7896 84.2457 2.54964 83.189C2.85017 83.3334 3.40597 83.5008 3.64834 83.5874L6.42742 84.6267C12.1245 87.1383 4.48853 82.9754 8.44063 86.3011L11.908 88.27C28.0493 88.7839 12.1245 87.6926 22.601 88.0102C23.6448 88.0102 25.1345 88.3335 27.1251 88.4836L27.0507 88.9744C25.7129 89.2631 24.9793 89.3555 27.0152 89.2169V89.1534C13.6207 88.3913 14.2476 88.1834 8.06579 89.4421C11.4976 90.747 5.68418 88.6684 10.2632 90.4467L16.584 92.2482C10.1436 93.4664 10.7673 93.0219 1.94536 92.635C2.9148 92.7851 4.95386 93.1027 6.12043 93.4549C9.28082 94.4191 6.9897 93.4895 8.77025 94.6789L17.282 96.082L34.4961 97.0751C34.7271 96.954 34.9502 96.7895 35.1618 96.5843L299.991 96.7402C300.159 97.0693 300.718 96.3591 303.827 97.0751C308.06 94.1882 304.852 97.0058 304.574 93.9053L313.299 94.1708L313.295 94.0958ZM304.57 74.7304L305.249 74.7939L304.548 74.8863L304.57 74.7304ZM301.846 93.2066L302.434 93.3452C302.362 93.6968 302.25 94.0182 302.106 94.2893C301.961 94.5605 301.787 94.7757 301.594 94.9214L301.846 93.1893V93.2066Z" fill="#009FE3"/>
</svg>
