<svg width="24" height="24" viewBox="0 0 24 24" fill="none" xmlns="http://www.w3.org/2000/svg">
<path d="M20.2996 12.23C20.5775 12.435 20.8333 12.6383 20.8333 13.3533C20.8333 14.07 20.4717 14.36 20.0848 14.5617C20.243 14.8338 20.2934 15.1606 20.2254 15.4717C20.1038 16.045 19.6064 16.49 19.1643 16.6217C19.3554 16.945 19.4154 17.2633 19.188 17.655C18.8959 18.1467 18.6417 18.3333 17.5175 18.3333H12.9385C11.3785 18.3333 10.5701 17.4233 10.5701 16.6667V12.775C10.5701 10.725 12.8864 8.98333 12.8864 7.55833L12.719 5.78333C12.7111 5.675 12.7317 5.41 12.8106 5.33333C12.9369 5.20167 13.2859 5 13.8133 5C14.1575 5 14.3864 5.06833 14.6564 5.205C15.5738 5.66667 15.8122 6.835 15.8122 7.775C15.8122 8.22667 15.1585 9.58 15.0701 10.0483C15.0701 10.0483 16.439 9.72833 18.0369 9.71667C19.7122 9.70667 20.7985 10.0333 20.7985 11.12C20.7985 11.555 20.4527 11.9917 20.2996 12.23ZM6.78062 11.6667H8.04378C8.29504 11.6667 8.536 11.772 8.71367 11.9596C8.89133 12.1471 8.99115 12.4015 8.99115 12.6667V19C8.99115 19.2652 8.89133 19.5196 8.71367 19.7071C8.536 19.8946 8.29504 20 8.04378 20H6.78062C6.52936 20 6.2884 19.8946 6.11073 19.7071C5.93306 19.5196 5.83325 19.2652 5.83325 19V12.6667C5.83325 12.4015 5.93306 12.1471 6.11073 11.9596C6.2884 11.772 6.52936 11.6667 6.78062 11.6667Z" fill="#129BF7"/>
</svg>
