<svg width="101" height="20" viewBox="0 0 101 20" fill="none" xmlns="http://www.w3.org/2000/svg">
<path d="M34.4721 3.25363H35.3708V5.76997H36.4945L37.5283 1.77857V0.173602H34.4721V3.25363ZM20.8092 6.68101C21.4833 6.68101 21.7977 7.20166 21.7977 11.2799H19.5957C19.6855 7.20166 20.045 6.68101 20.8092 6.68101ZM24.899 14.8808H23.4608V15.358C23.4608 17.3537 22.8763 18.3081 21.6628 18.3081C20.2696 18.3081 19.5955 17.4403 19.5955 12.8849V12.538H25.0786C25.0786 7.20166 23.8651 5.11924 20.809 5.11924C17.7528 5.11924 15.7752 8.15606 15.7752 12.8419C15.7752 17.4838 17.6628 20 20.8989 20C23.6854 20 24.8989 18.4816 24.8989 15.2713L24.899 14.8808ZM63.0674 6.68101C63.7415 6.68101 64.0561 7.20166 64.0561 11.2799H61.9778C62.0677 7.20166 62.3033 6.68101 63.0674 6.68101ZM67.1573 14.8808H65.719V15.358C65.719 17.3537 65.1347 18.3081 63.9212 18.3081C62.5279 18.3081 61.9777 17.4403 61.9777 12.8849V12.538H67.3369C67.3369 7.20166 66.1234 5.11924 63.0672 5.11924C60.011 5.11924 58.0336 8.15606 58.0336 12.8417C58.0336 17.4838 59.9213 20 63.1572 20C65.9438 20 67.1573 18.4816 67.1573 15.2713V14.8808ZM87.0225 20C89.045 20 89.899 18.7853 89.899 17.0497V14.8808H88.5507V17.0497C88.5507 17.9611 88.4158 18.2645 87.9664 18.2645C87.5618 18.2645 87.4271 18.0041 87.4271 17.1798V6.76773H89.899V5.42292H87.472V1.38817H86.0786L84.0112 5.59636H82.7977V6.72437H83.8763V16.3555C83.8764 18.872 84.3259 20 87.0225 20ZM76.5954 8.98039C76.5954 6.29061 75.3372 5.16276 72.6405 5.16276C69.9438 5.16276 68.1011 7.02822 68.1011 9.24087V10.1086H71.2024V8.06934C71.2024 6.89797 71.4721 6.46421 72.1462 6.46421C72.8205 6.46421 73.09 6.85461 73.09 8.06934V10.4556C69.0001 11.8003 67.7417 12.7983 67.7417 16.1388C67.7417 18.7419 68.8203 20 70.6632 20C72.2362 20 72.9554 18.9587 73.3599 18.3081V19.7397H77.3599V18.5681H76.5957L76.5954 8.98039ZM100.011 18.5681V8.28615C100.011 6.16037 99.0225 5.1626 97.2697 5.1626C95.1573 5.1626 94.3033 6.68101 94.3033 6.68101V0L89.8539 0.477284V1.60513H90.8876V18.5681H90.1685V19.7397H95.1125V18.5681H94.3935V9.58776C94.3935 8.02598 94.8428 7.37526 95.6517 7.37526C96.236 7.37526 96.4606 7.7223 96.4606 8.58999V18.5681H95.6517V19.7397H101V18.5681H100.011ZM73.0898 11.6702V16.0953C73.0898 17.3969 72.8203 17.9177 72.0562 17.9177C71.4721 17.9177 71.2022 17.4403 71.2022 15.8787C71.2022 13.2321 71.427 12.5814 73.0898 11.6702ZM57.3486 18.5681V1.34497H58.3824V0.216801H52.2249V1.34481H53.4833V9.41415H49.5284V1.34497H50.8317V0.216801H44.5844V1.34481H45.6631V18.568H44.5844V19.7395H50.8317V18.568H49.5284V10.7593H53.4833V18.5681H52.2249V19.7397H58.3824V18.5681H57.3486ZM82.0786 18.5681V0L77.4494 0.477284V1.60513H78.573V18.5681H77.854V19.7397H83.1574V18.5681H82.0786ZM44.3598 15.8785C44.3598 11.2799 39.2363 10.9761 39.2363 7.9391C39.2363 6.89797 39.7755 6.37733 40.6295 6.37733C41.9328 6.37733 42.6071 7.63542 42.6969 10.2817H43.8653V5.94341C43.8653 5.94341 42.562 5.1626 40.5844 5.1626C38.2025 5.1626 36.2697 6.46405 36.2697 9.11047C36.2697 13.4489 41.2585 14.0564 41.2585 17.0064C41.2585 18.1779 40.6742 18.7419 39.7302 18.7419C38.292 18.7419 37.5729 17.5272 37.4831 14.5336H36.3147V19.2192C36.3147 19.2192 37.7529 20 39.8652 20C42.4722 20 44.3598 18.5681 44.3598 15.8785ZM15.1012 18.5681V1.34497H16.045V0.216801H10.7866L8.1799 11.193L5.39337 0.216801H0V1.34481H1.12366V18.568H0V19.7395H4.13478V18.568H2.83144V6.46405L6.11242 19.7395H8.00005L11.2359 6.37733V18.568H10.0224V19.7395H16.045V18.568L15.1012 18.5681ZM35.0113 18.5681V8.28615C35.0113 6.16037 34.0228 5.1626 32.3148 5.1626C30.2024 5.1626 29.3484 6.68101 29.3484 6.68101V5.1626L24.854 5.63988V6.81125H25.8878V18.5681H24.8092V19.7397H30.1573V18.5681H29.4383V9.58776C29.4383 8.02598 29.8878 7.37526 30.6967 7.37526C31.281 7.37526 31.5056 7.7223 31.5056 8.58999V18.5681H30.6967V19.7397H35.7304V18.5681H35.0113Z" fill="#D2232E"/>
</svg>
