<svg width="24" height="24" viewBox="0 0 24 24" fill="none" xmlns="http://www.w3.org/2000/svg">
<path d="M4.21046 20.2124C4.1446 20.2128 4.07913 20.2022 4.01671 20.1812C3.88618 20.1388 3.77323 20.0546 3.69529 19.9417C3.61735 19.8287 3.57876 19.6932 3.58546 19.5562C3.58546 19.4624 4.22921 10.3874 13.3292 9.67491V6.41241C13.3291 6.28816 13.366 6.16669 13.4353 6.06352C13.5045 5.96035 13.603 5.88017 13.718 5.83321C13.8331 5.78625 13.9595 5.77466 14.0812 5.7999C14.2028 5.82514 14.3142 5.88607 14.4011 5.97491L20.5698 12.2749C20.6844 12.3917 20.7485 12.5488 20.7485 12.7124C20.7485 12.876 20.6844 13.0331 20.5698 13.1499L14.4011 19.4499C14.3142 19.5388 14.2028 19.5997 14.0812 19.6249C13.9595 19.6502 13.8331 19.6386 13.718 19.5916C13.603 19.5447 13.5045 19.4645 13.4353 19.3613C13.366 19.2581 13.3291 19.1367 13.3292 19.0124V15.8124C7.25421 16.0437 4.76359 19.8749 4.73859 19.9218C4.6822 20.0108 4.60422 20.0842 4.51188 20.135C4.41954 20.1858 4.31586 20.2124 4.21046 20.2124ZM14.5792 7.94366V10.2593C14.5793 10.4213 14.5165 10.5771 14.404 10.6937C14.2914 10.8103 14.138 10.8786 13.9761 10.8843C8.08859 11.0999 5.98234 15.0218 5.22609 17.5437C6.78859 16.1937 9.57296 14.5437 13.9167 14.5437H13.9448C14.1106 14.5437 14.2696 14.6095 14.3868 14.7267C14.504 14.8439 14.5698 15.0029 14.5698 15.1687V17.4843L19.2573 12.7155L14.5792 7.94366Z" fill="black" fill-opacity="0.6"/>
</svg>
